<svg width="1200" height="400" viewBox="0 0 1200 400" fill="none" xmlns="http://www.w3.org/2000/svg">
  <defs>
    <marker id="arrow" markerWidth="8" markerHeight="8" refX="6" refY="4" orient="auto" markerUnits="strokeWidth">
      <path d="M0 0L8 4L0 8Z" fill="#58A6FF"/>
    </marker>
  </defs>

  <rect x="1" y="1" width="1198" height="398" rx="20" fill="#0D1117" stroke="#30363D" stroke-width="2"/>

  <!-- Identity -->
  <line x1="42" y1="36" x2="42" y2="118" stroke="#58A6FF" stroke-width="3"/>
  <text x="62" y="62" fill="#F0F6FC" font-family="-apple-system,BlinkMacSystemFont,'Segoe UI',Helvetica,Arial,sans-serif" font-size="29" font-weight="650" letter-spacing="3.7">JOSEPH JM WALKER, MBA</text>
  <text x="62" y="90" fill="#8B949E" font-family="-apple-system,BlinkMacSystemFont,'Segoe UI',Helvetica,Arial,sans-serif" font-size="14">Independent research lab for evidence, provenance, interpretation, and human authority</text>
  <circle cx="990" cy="44" r="4" fill="#58A6FF"/>
  <text x="1003" y="49" fill="#58A6FF" font-family="ui-monospace,SFMono-Regular,Menlo,monospace" font-size="10.5" letter-spacing="1.6">RESEARCH SYSTEMS LAB</text>

  <!-- Source families -->
  <g font-family="ui-monospace,SFMono-Regular,Menlo,monospace" font-size="10" fill="#8B949E">
    <text x="62" y="163">OBSERVATIONS</text>
    <text x="62" y="193">DOCUMENTS</text>
    <text x="62" y="223">DATA</text>
    <text x="62" y="253">EXPERIMENTS</text>
    <text x="62" y="283">RECORDS</text>
  </g>

  <g stroke="#6E7681" stroke-width="1.1" opacity="0.65">
    <path d="M150 159H184C212 159 218 181 244 181H279"/>
    <path d="M150 189H191C213 189 218 190 244 190H279"/>
    <path d="M150 219H196C219 219 224 199 248 199H279"/>
    <path d="M150 249H190C216 249 221 208 250 208H279"/>
    <path d="M150 279H182C211 279 222 217 252 217H279"/>
  </g>
  <g fill="#58A6FF">
    <circle cx="150" cy="159" r="2.5"/><circle cx="150" cy="189" r="2.5"/><circle cx="150" cy="219" r="2.5"/><circle cx="150" cy="249" r="2.5"/><circle cx="150" cy="279" r="2.5"/>
    <circle cx="279" cy="181" r="2.2"/><circle cx="279" cy="190" r="2.2"/><circle cx="279" cy="199" r="2.2"/><circle cx="279" cy="208" r="2.2"/><circle cx="279" cy="217" r="2.2"/>
  </g>

  <!-- Main epistemic spine -->
  <rect x="286" y="172" width="170" height="60" rx="13" fill="#161B22" stroke="#58A6FF" stroke-width="1.5"/>
  <rect x="520" y="172" width="170" height="60" rx="13" fill="#161B22" stroke="#58A6FF" stroke-width="1.5"/>
  <rect x="754" y="172" width="160" height="60" rx="13" fill="#161B22" stroke="#58A6FF" stroke-width="1.5"/>

  <text x="371" y="209" text-anchor="middle" fill="#58A6FF" font-family="ui-monospace,SFMono-Regular,Menlo,monospace" font-size="18" letter-spacing="2">EVIDENCE</text>
  <text x="605" y="209" text-anchor="middle" fill="#58A6FF" font-family="ui-monospace,SFMono-Regular,Menlo,monospace" font-size="18" letter-spacing="2">INFERENCE</text>
  <text x="834" y="209" text-anchor="middle" fill="#58A6FF" font-family="ui-monospace,SFMono-Regular,Menlo,monospace" font-size="17.5" letter-spacing="1.8">AUTHORITY</text>

  <path d="M456 202H506" stroke="#58A6FF" stroke-width="1.5" marker-end="url(#arrow)"/>
  <path d="M690 202H740" stroke="#58A6FF" stroke-width="1.5" marker-end="url(#arrow)"/>
  <g fill="#58A6FF" opacity="0.68"><circle cx="469" cy="202" r="1.5"/><circle cx="478" cy="202" r="1.5"/><circle cx="487" cy="202" r="1.5"/><circle cx="703" cy="202" r="1.5"/><circle cx="712" cy="202" r="1.5"/><circle cx="721" cy="202" r="1.5"/></g>

  <!-- Motion / lineage traces -->
  <path d="M184 151C226 141 248 147 282 170" stroke="#58A6FF" stroke-width="1" stroke-dasharray="2 8" opacity="0.30"/>
  <path d="M457 189C482 177 497 177 519 189" stroke="#58A6FF" stroke-width="1" stroke-dasharray="2 8" opacity="0.34"/>
  <path d="M691 189C716 177 731 177 753 189" stroke="#58A6FF" stroke-width="1" stroke-dasharray="2 8" opacity="0.34"/>
  <path d="M914 188C941 175 958 177 978 192" stroke="#58A6FF" stroke-width="1" stroke-dasharray="2 8" opacity="0.30"/>

  <!-- Understanding & interpretation -->
  <rect x="446" y="112" width="326" height="42" rx="12" fill="#0D1117" stroke="#58A6FF" stroke-width="1.2"/>
  <circle cx="470" cy="133" r="10" fill="#161B22" stroke="#58A6FF"/>
  <path d="M465 129H470V138H465V129ZM470 129H475V138H470" stroke="#58A6FF" stroke-width="1"/>
  <text x="489" y="129" fill="#58A6FF" font-family="ui-monospace,SFMono-Regular,Menlo,monospace" font-size="10.2" font-weight="700" letter-spacing=".65">UNDERSTANDING &amp; INTERPRETATION</text>
  <text x="489" y="145" fill="#8B949E" font-family="-apple-system,BlinkMacSystemFont,'Segoe UI',Helvetica,Arial,sans-serif" font-size="10.5">Hermeneia · Pyxis</text>
  <path d="M609 154V172" stroke="#58A6FF" stroke-width="1.2"/>
  <path d="M609 154C609 163 567 163 567 172" stroke="#58A6FF" stroke-width="1" opacity=".50"/>
  <path d="M609 154C609 163 834 151 834 172" stroke="#58A6FF" stroke-width="1" opacity=".40"/>
  <circle cx="609" cy="162" r="2.3" fill="#58A6FF"/>

  <!-- Provenance & review -->
  <rect x="296" y="268" width="396" height="62" rx="13" fill="#0D1117" stroke="#58A6FF" stroke-width="1.2"/>
  <circle cx="326" cy="299" r="13" fill="#161B22" stroke="#58A6FF"/>
  <path d="M326 290L333 293V299C333 304 330 307 326 309C322 307 319 304 319 299V293L326 290Z" stroke="#58A6FF" stroke-width="1.1"/>
  <path d="M323 299L325 301L329 296" stroke="#58A6FF" stroke-width="1.1"/>
  <text x="350" y="293" fill="#58A6FF" font-family="ui-monospace,SFMono-Regular,Menlo,monospace" font-size="10.8" font-weight="700" letter-spacing=".7">PROVENANCE &amp; REVIEW</text>
  <text x="350" y="312" fill="#8B949E" font-family="-apple-system,BlinkMacSystemFont,'Segoe UI',Helvetica,Arial,sans-serif" font-size="9.5">Proofline · Label Lens TTB · Professional Provenance Publisher</text>
  <path d="M371 232V268" stroke="#58A6FF" stroke-width="1.2"/>
  <path d="M605 232V248C605 258 548 258 548 268" stroke="#58A6FF" stroke-width="1" opacity=".58"/>
  <circle cx="371" cy="250" r="2.3" fill="#58A6FF"/>

  <!-- Measurement & experimental method -->
  <rect x="706" y="268" width="302" height="62" rx="13" fill="#0D1117" stroke="#58A6FF" stroke-width="1.2"/>
  <circle cx="735" cy="299" r="13" fill="#161B22" stroke="#58A6FF"/>
  <path d="M732 290H738M734 290V297L730 305H740L736 297V290" stroke="#58A6FF" stroke-width="1.1"/>
  <text x="758" y="293" fill="#58A6FF" font-family="ui-monospace,SFMono-Regular,Menlo,monospace" font-size="9.55" font-weight="700" letter-spacing=".48">MEASUREMENT &amp; EXPERIMENTAL METHOD</text>
  <text x="758" y="312" fill="#8B949E" font-family="-apple-system,BlinkMacSystemFont,'Segoe UI',Helvetica,Arial,sans-serif" font-size="10.5">ChessHeat</text>
  <path d="M605 232V249C605 259 788 258 788 268" stroke="#58A6FF" stroke-width="1" opacity=".52"/>
  <path d="M834 232V249C834 258 834 258 834 268" stroke="#58A6FF" stroke-width="1.2"/>
  <circle cx="834" cy="250" r="2.3" fill="#58A6FF"/>

  <!-- Explicit human governance -->
  <g opacity="0.28" stroke="#58A6FF" fill="none">
    <circle cx="950" cy="201" r="24"/><circle cx="950" cy="201" r="37"/><circle cx="950" cy="201" r="49" stroke-dasharray="3 7"/>
  </g>
  <path d="M914 202H981" stroke="#58A6FF" stroke-width="1.1"/>
  <circle cx="981" cy="202" r="3" fill="#58A6FF"/>
  <path d="M991 187L1003 192V202C1003 210 999 215 991 219C983 215 979 210 979 202V192L991 187Z" stroke="#58A6FF" stroke-width="1.3"/>
  <circle cx="991" cy="198" r="2.8" stroke="#58A6FF"/>
  <path d="M985 208C987 204 995 204 997 208" stroke="#58A6FF"/>

  <rect x="1013" y="176" width="141" height="54" rx="10" fill="#0D1117" stroke="#30363D" stroke-width="1"/>
  <text x="1025" y="194" fill="#F0F6FC" font-family="ui-monospace,SFMono-Regular,Menlo,monospace" font-size="8.8" font-weight="700" letter-spacing=".55">HUMAN JUDGMENT</text>
  <text x="1025" y="208" fill="#F0F6FC" font-family="ui-monospace,SFMono-Regular,Menlo,monospace" font-size="8.8" font-weight="700" letter-spacing=".55">&amp; GOVERNANCE</text>
  <text x="1025" y="221" fill="#8B949E" font-family="-apple-system,BlinkMacSystemFont,'Segoe UI',Helvetica,Arial,sans-serif" font-size="9.2">remain explicit</text>

  <!-- Footer -->
  <line x1="42" y1="356" x2="1158" y2="356" stroke="#30363D"/>
  <text x="42" y="377" fill="#58A6FF" font-family="ui-monospace,SFMono-Regular,Menlo,monospace" font-size="9.5" letter-spacing="1.25">EVIDENCE FIRST · PROVENANCE ALWAYS · HUMAN AUTHORITY EXPLICIT</text>
  <text x="1158" y="377" text-anchor="end" fill="#8B949E" font-family="ui-monospace,SFMono-Regular,Menlo,monospace" font-size="9.5" letter-spacing="1.1">CANTON · OH · USA</text>
</svg>
